<svg xmlns="http://www.w3.org/2000/svg" viewBox="0 0 64 64" width="64" height="64">
  <g transform="translate(-0.94, 61.54) scale(0.044849, -0.082051)" fill="#4ade80" stroke="#4ade80" stroke-width="60" stroke-linejoin="round">
    <path d="M403 0H87Q51 0 51 36V153Q51 189 87 189H356Q369 189 375.50 197.50Q382 206 382 218Q382 235 375.50 243Q369 251 356 252L206 273Q136 284 93.50 319.50Q51 355 51 439V544Q51 630 106 675Q161 720 258 720H538Q574 720 574 684V565Q574 529 538 529H305Q278 529 278 499Q278 470 305 467L454 447Q501 440 536 422.50Q571 405 590.50 371Q610 337 610 281V176Q610 91 555 45.50Q500 0 403 0Z"/>
    <path d="M442 0H105Q69 0 69 36V684Q69 720 105 720H442Q568 720 628 670Q688 620 688 516V204Q688 100 628 50Q568 0 442 0ZM296 529V189H415Q462 189 462 238V481Q462 529 415 529Z" transform="translate(730, 0)"/>
  </g>
</svg>
