<?xml version="1.0" encoding="UTF-8"?>
<svg version="1.1" xmlns="http://www.w3.org/2000/svg" viewBox="130 0 1530 211" width="1530" height="211">
<path d="M0 0 C-1.55652055 5.3537465 -3.9817509 10.00150947 -6.625 14.875 C-7.25535156 16.050625 -7.25535156 16.050625 -7.8984375 17.25 C-8.9281022 19.16892057 -9.96347567 21.08477603 -11 23 C-11.58265625 22.82098145 -12.1653125 22.64196289 -12.765625 22.45751953 C-53.75500399 9.897187 -53.75500399 9.897187 -95.078125 16.87890625 C-98.65814078 18.96724879 -101.25805494 20.86690795 -102.65625 24.88671875 C-103.41137744 28.69866014 -103.13418277 30.69079622 -101.5625 34.3125 C-97.53101864 38.54063899 -92.56269688 40.08945265 -86.828125 40.3984375 C-85.30211117 40.41052075 -83.77583088 40.40153894 -82.25 40.375 C-81.40800049 40.36919922 -80.56600098 40.36339844 -79.69848633 40.35742188 C-70.75097103 40.18432171 -61.90635019 39.09671821 -53.0234375 38.08105469 C-33.99901122 35.93532494 -13.4650015 35.30329651 2.375 47.88671875 C8.96824935 54.05577007 12.69206647 60.9064766 13.23828125 69.94140625 C13.58512545 84.3557513 11.05266435 94.23680644 1.140625 105.0234375 C-16.69580829 122.52459949 -44.06917702 123.46192328 -67.48400879 123.29721069 C-92.19830207 122.98229268 -117.85478125 117.21576172 -139 104 C-137.72199484 100.55044666 -136.23881563 97.61909971 -134.1796875 94.57421875 C-133.64472656 93.77822266 -133.10976562 92.98222656 -132.55859375 92.16210938 C-132.00300781 91.34548828 -131.44742188 90.52886719 -130.875 89.6875 C-130.31167969 88.85154297 -129.74835938 88.01558594 -129.16796875 87.15429688 C-127.78279211 85.10000948 -126.39337781 83.04872962 -125 81 C-121.77827208 82.24066541 -118.62719686 83.60622349 -115.48046875 85.0234375 C-88.95819849 96.88018595 -58.63626808 102.91260908 -30.08984375 94.23828125 C-25.08548206 92.2327406 -20.70223034 89.75626038 -17.8203125 85.08984375 C-16.01983143 80.50290388 -16.32936065 75.62365317 -18.1875 71.125 C-22.89877148 65.60144034 -29.06002227 64.74107802 -36 64 C-45.35685776 63.56946973 -54.58054174 65.0729748 -63.83642578 66.29101562 C-83.498548 68.85848795 -102.94190212 70.06571776 -120.1796875 58.54296875 C-127.19283879 53.10446841 -131.72914661 44.78300895 -133 36 C-133.82818695 24.36686243 -131.39112135 14.97744687 -124.234375 5.71484375 C-96.16067064 -25.51983114 -33.86925101 -15.88677442 0 0 Z " fill="#FFFFFF" transform="translate(282,51)"/>
<path d="M0 0 C65.63722826 0 65.63722826 0 78.125 2.625 C78.94991943 2.79612305 79.77483887 2.96724609 80.62475586 3.14355469 C96.37493673 6.66819796 112.66674707 14.31422046 122 28 C132.47570512 45.85234748 135.33487321 66.057955 130.375 86.3125 C124.97386963 103.17456556 113.880918 115.95097159 98.25 124.1875 C83.05258656 131.41977162 67.81336996 133.32150601 51.171875 133.1953125 C49.86686035 133.19329834 48.5618457 133.19128418 47.21728516 133.18920898 C42.39482044 133.17883387 37.57240626 133.15091212 32.75 133.125 C21.9425 133.08375 11.135 133.0425 0 133 C0 89.11 0 45.22 0 0 Z M28 25 C28 52.72 28 80.44 28 109 C62.3412133 111.1779572 62.3412133 111.1779572 92.03125 97.1171875 C101.54662969 86.83573911 103.59568304 75.53901364 103.25 61.87890625 C102.54617263 50.95858472 97.91633852 42.08746791 90 34.59765625 C72.7216478 20.79522256 48.13140609 25 28 25 Z " fill="#4ade80" transform="translate(856,39)"/>
<path d="M0 0 C32.18173938 0 32.18173938 0 46.0625 8.375 C47.55961123 9.21748879 49.06000395 10.05417057 50.56347656 10.88525391 C53.46565119 12.49899213 56.34901753 14.13925522 59.21728516 15.8125 C63.81562456 18.48935217 68.51829963 20.94381497 73.25 23.375 C74.66248049 24.12046228 76.07394591 24.86785117 77.484375 25.6171875 C81.02817582 27.49265104 84.58279886 29.34659536 88.140625 31.1953125 C89.72375488 32.01829834 89.72375488 32.01829834 91.33886719 32.85791016 C93.40130585 33.92926963 95.4644261 34.99931832 97.52832031 36.06787109 C98.45741211 36.55078613 99.38650391 37.03370117 100.34375 37.53125 C101.58415039 38.17416992 101.58415039 38.17416992 102.84960938 38.83007812 C105 40 105 40 108 42 C108.33 28.14 108.66 14.28 109 0 C118.24 0 127.48 0 137 0 C137 43.89 137 87.78 137 133 C127.76 133 118.52 133 109 133 C109 112.87 109 92.74 109 72 C107.02 71.34 105.04 70.68 103 70 C100.44641929 68.77691901 97.9343981 67.52703729 95.42578125 66.21875 C94.35019707 65.66423912 94.35019707 65.66423912 93.25288391 65.098526 C90.93720457 63.90325245 88.62480526 62.70178591 86.3125 61.5 C84.71353332 60.67279716 83.11441161 59.84589391 81.51513672 59.01928711 C70.6492926 53.39786657 59.81404512 47.72047314 49 42 C42.07 38.37 35.14 34.74 28 31 C28 64.66 28 98.32 28 133 C18.76 133 9.52 133 0 133 C0 89.11 0 45.22 0 0 Z " fill="#FFFFFF" transform="translate(625,39)"/>
<path d="M0 0 C32.13494427 0 32.13494427 0 42.0625 6.375 C43.17206055 7.01550293 44.28162109 7.65600586 45.42480469 8.31591797 C47.63051873 9.58977047 49.82385522 10.88536723 52.00244141 12.20507812 C56.16109644 14.69525827 60.43971074 16.91201924 64.75 19.125 C66.24571056 19.91231929 67.74049694 20.7013967 69.234375 21.4921875 C72.78101573 23.36209723 76.33434558 25.21880017 79.890625 27.0703125 C81.41284668 27.86284424 81.41284668 27.86284424 82.96582031 28.67138672 C84.91781198 29.68696269 86.87025013 30.70168119 88.82324219 31.71533203 C95.26298291 35.06606343 101.62410328 38.52223815 108 42 C108.33 28.14 108.66 14.28 109 0 C118.24 0 127.48 0 137 0 C137 43.89 137 87.78 137 133 C127.76 133 118.52 133 109 133 C108.67 113.2 108.34 93.4 108 73 C96.93192456 67.17469713 85.86580224 61.35673369 74.75 55.625 C72.26011927 54.33911692 69.77064653 53.05244517 67.28125 51.765625 C66.36233978 51.29067093 66.36233978 51.29067093 65.42486572 50.80612183 C59.36182152 47.67154915 53.30376361 44.52746202 47.25 41.375 C46.34088867 40.90271973 45.43177734 40.43043945 44.49511719 39.94384766 C43.63563477 39.4957373 42.77615234 39.04762695 41.890625 38.5859375 C41.15875977 38.2048584 40.42689453 37.8237793 39.67285156 37.43115234 C35.75650813 35.33418439 31.88336639 33.15742577 28 31 C28 64.66 28 98.32 28 133 C18.76 133 9.52 133 0 133 C0 89.11 0 45.22 0 0 Z " fill="#FFFFFF" transform="translate(1360,39)"/>
<path d="M0 0 C37.62 0 75.24 0 114 0 C114 8.25 114 16.5 114 25 C85.62 25 57.24 25 28 25 C28 33.25 28 41.5 28 50 C53.08 50 78.16 50 104 50 C104 57.59 104 65.18 104 73 C78.92 73 53.84 73 28 73 C28 84.88 28 96.76 28 109 C56.71 109 85.42 109 115 109 C115 116.92 115 124.84 115 133 C77.05 133 39.1 133 0 133 C0 89.11 0 45.22 0 0 Z " fill="#4ade80" transform="translate(1014,39)"/>
<path d="M0 0 C27.9365625 -0.0309375 27.9365625 -0.0309375 56.4375 -0.0625 C62.32779053 -0.071604 68.21808105 -0.08070801 74.28686523 -0.09008789 C81.4552002 -0.09460449 81.4552002 -0.09460449 84.80628967 -0.09544373 C87.15708098 -0.09698377 89.50787148 -0.10050991 91.85865784 -0.10557556 C95.41026186 -0.11284915 98.96181743 -0.11390755 102.51342773 -0.11352539 C103.56845458 -0.1171235 104.62348143 -0.12072161 105.71047878 -0.12442875 C106.66066419 -0.12305125 107.61084959 -0.12167376 108.58982849 -0.12025452 C109.42220756 -0.12117631 110.25458662 -0.1220981 111.11218929 -0.12304783 C113 0 113 0 114 1 C114 8.92 114 16.84 114 25 C85.62 25 57.24 25 28 25 C28 33.25 28 41.5 28 50 C53.08 50 78.16 50 104 50 C104 57.59 104 65.18 104 73 C78.92 73 53.84 73 28 73 C28 84.88 28 96.76 28 109 C56.71 109 85.42 109 115 109 C115 116.92 115 124.84 115 133 C77.05 133 39.1 133 0 133 C0 89.11 0 45.22 0 0 Z " fill="#FFFFFF" transform="translate(1533,39)"/>
<path d="M0 0 C37.29 0 74.58 0 113 0 C113 8.25 113 16.5 113 25 C84.95 25 56.9 25 28 25 C28 33.25 28 41.5 28 50 C30.26673584 49.99476318 32.53347168 49.98952637 34.86889648 49.98413086 C42.34077457 49.96759432 49.81265344 49.95652852 57.28454494 49.94818783 C61.81674094 49.94295922 66.34891827 49.93586199 70.88110352 49.92456055 C75.2512283 49.91373086 79.62133508 49.90772299 83.99147224 49.90512276 C85.66250963 49.90326865 87.33354597 49.89964832 89.00457573 49.89426994 C91.33697551 49.88705841 93.66929993 49.8860091 96.00170898 49.88647461 C96.6994191 49.88287933 97.39712921 49.87928406 98.11598206 49.87557983 C102.88594784 49.88594784 102.88594784 49.88594784 104 51 C104 58.26 104 65.52 104 73 C78.92 73 53.84 73 28 73 C28 84.88 28 96.76 28 109 C56.71 109 85.42 109 115 109 C115 116.92 115 124.84 115 133 C77.05 133 39.1 133 0 133 C0 89.11 0 45.22 0 0 Z " fill="#FFFFFF" transform="translate(324,39)"/>
<path d="M0 0 C1.20970459 0.00523682 2.41940918 0.01047363 3.66577148 0.01586914 C4.97094727 0.0190918 6.27612305 0.02231445 7.62084961 0.02563477 C9.00952213 0.03399138 10.39819401 0.04245634 11.78686523 0.05102539 C13.17944179 0.05603873 14.57202005 0.06060193 15.96459961 0.06469727 C19.38456394 0.07653105 22.80444367 0.09301659 26.22436523 0.11352539 C26.66264648 0.99008789 27.10092773 1.86665039 27.55249023 2.76977539 C27.85131104 3.36733643 28.15013184 3.96489746 28.45800781 4.58056641 C29.15341627 5.97155037 29.84855309 7.36267017 30.54345703 8.75390625 C32.70297636 13.076166 34.86845594 17.3953376 37.04077148 21.71118164 C42.37769059 32.3277284 47.6317953 42.9757343 52.73413086 53.70703125 C56.59392086 61.81815465 60.50927056 69.90142363 64.43811035 77.97924805 C65.53309579 80.23077461 66.62737694 82.48264209 67.72143555 84.73461914 C70.92740429 91.33319814 74.13485065 97.93103681 77.34950256 104.52539062 C78.65010414 107.19532739 79.9476815 109.86672572 81.24447632 112.53851318 C81.84910917 113.78253507 82.45505597 115.02591933 83.06240845 116.26861572 C83.89974082 117.98218936 84.73208452 119.69819797 85.56420898 121.41430664 C86.03205811 122.37506104 86.49990723 123.33581543 86.98193359 124.32568359 C88.25292082 127.1776001 89.23700328 130.15143953 90.22436523 133.11352539 C80.65436523 133.11352539 71.08436523 133.11352539 61.22436523 133.11352539 C59.57436523 130.04040039 57.92436523 126.96727539 56.22436523 123.80102539 C55.70229492 122.83640381 55.18022461 121.87178223 54.64233398 120.87792969 C54.2362793 120.11391846 53.83022461 119.34990723 53.41186523 118.56274414 C52.99291992 117.7824585 52.57397461 117.00217285 52.14233398 116.19824219 C51.22436523 114.11352539 51.22436523 114.11352539 51.22436523 111.11352539 C25.81436523 111.11352539 0.40436523 111.11352539 -25.77563477 111.11352539 C-26.43563477 113.09352539 -27.09563477 115.07352539 -27.77563477 117.11352539 C-28.39144068 118.49056625 -29.03753866 119.85469112 -29.72094727 121.19946289 C-30.20072021 122.15151611 -30.20072021 122.15151611 -30.69018555 123.12280273 C-31.08963379 123.90349121 -31.48908203 124.68417969 -31.90063477 125.48852539 C-33.17938477 128.00477539 -34.45813477 130.52102539 -35.77563477 133.11352539 C-45.34563477 133.11352539 -54.91563477 133.11352539 -64.77563477 133.11352539 C-63.23165823 128.48159579 -61.5205996 124.22361042 -59.42407227 119.84790039 C-58.92766739 118.80095001 -58.92766739 118.80095001 -58.42123413 117.73284912 C-57.70718344 116.22791779 -56.99156597 114.72372904 -56.27453613 113.22021484 C-55.13153178 110.82346867 -53.99259361 108.42482841 -52.85473633 106.02563477 C-51.27523041 102.6956251 -49.69435814 99.3662696 -48.11254883 96.03735352 C-44.56658964 88.57075119 -41.04456994 81.09289293 -37.52563477 73.61352539 C-37.19483917 72.9106842 -36.86404358 72.20784302 -36.52322388 71.48370361 C-28.96378162 55.41922511 -21.48591907 39.31706839 -14.04386902 23.19787598 C-12.83155733 20.57300388 -11.61759862 17.94889532 -10.40341187 15.32489014 C-9.54184568 13.46109389 -8.68276305 11.59616619 -7.82373047 9.73120117 C-7.30770264 8.61600098 -6.7916748 7.50080078 -6.26000977 6.35180664 C-5.80335938 5.36220947 -5.34670898 4.3726123 -4.8762207 3.35302734 C-3.29462435 0.13475243 -3.29462435 0.13475243 0 0 Z M11.22436523 31.11352539 C8.96285065 35.85347615 6.70696016 40.59605396 4.45556641 45.34082031 C3.69397078 46.94403718 2.93101648 48.54660956 2.16650391 50.1484375 C-3.81437828 62.68338622 -9.29808873 75.33258464 -14.77563477 88.11352539 C3.04436523 88.11352539 20.86436523 88.11352539 39.22436523 88.11352539 C37.71240134 83.57763371 36.14615624 79.67124406 34.06420898 75.41430664 C33.75811707 74.7853096 33.45202515 74.15631256 33.13665771 73.508255 C32.14848688 71.47915285 31.15532186 69.45254409 30.16186523 67.42602539 C28.80089488 64.63904176 27.44212899 61.8509868 26.08374023 59.06274414 C25.74972702 58.37796997 25.41571381 57.6931958 25.07157898 56.9876709 C23.11450217 52.96822185 21.18989444 48.93586003 19.30249023 44.88305664 C18.8900708 43.9977124 18.47765137 43.11236816 18.05273438 42.20019531 C17.30984092 40.59724332 16.57179122 38.99203468 15.83935547 37.38427734 C14.2945701 33.57687679 14.2945701 33.57687679 11.22436523 31.11352539 Z " fill="#FFFFFF" transform="translate(515.775634765625,38.886474609375)"/>
<path d="M0 0 C10.23 0 20.46 0 31 0 C37.64581044 15.02975592 43.94965499 30.15800268 50.08447266 45.40063477 C53.43460871 53.71610738 56.82368241 62.01241033 60.296875 70.27734375 C60.64595413 71.10898544 60.99503326 71.94062714 61.35469055 72.79747009 C63.03869628 76.80649019 64.72922396 80.81260094 66.4284668 84.81518555 C67.03451677 86.25432113 67.64040157 87.69352629 68.24609375 89.1328125 C68.52656555 89.78728867 68.80703735 90.44176483 69.0960083 91.11607361 C70.27495808 93.92958764 71 95.9131548 71 99 C71.66 99 72.32 99 73 99 C73.09104004 98.35925537 73.18208008 97.71851074 73.27587891 97.05834961 C74.26945005 92.86196873 75.91999122 89.03643241 77.5859375 85.06640625 C77.95511292 84.17624313 78.32428833 83.28608002 78.70465088 82.36894226 C79.92388994 79.4316917 81.1494465 76.49712083 82.375 73.5625 C83.223613 71.52135356 84.07175095 69.48000956 84.91943359 67.43847656 C86.6964718 63.15958024 88.47560161 58.88156161 90.25585938 54.60400391 C93.00018463 48.00522468 95.72877058 41.40001422 98.453125 34.79296875 C98.89004669 33.73352554 99.32696838 32.67408234 99.77713013 31.58253479 C101.4808257 27.45098028 103.18421984 23.31930159 104.88739014 19.18753052 C106.06222607 16.33826366 107.23802611 13.48939654 108.4140625 10.640625 C108.93930511 9.36574471 108.93930511 9.36574471 109.47515869 8.06510925 C109.79482605 7.29113297 110.11449341 6.51715668 110.44384766 5.71972656 C110.72185211 5.04572815 110.99985657 4.37172974 111.2862854 3.67730713 C111.81578022 2.43293658 112.39521527 1.20956945 113 0 C123.23 0 133.46 0 144 0 C140.62811791 10.11564626 140.62811791 10.11564626 138.35546875 15.09765625 C137.85120361 16.21108398 137.34693848 17.32451172 136.82739258 18.47167969 C136.28622803 19.65665039 135.74506348 20.84162109 135.1875 22.0625 C134.00517333 24.67198682 132.82668587 27.28320086 131.6484375 29.89453125 C131.34559341 30.56487396 131.04274933 31.23521667 130.73072815 31.9258728 C127.53505454 39.00939229 124.4184219 46.12677205 121.3125 53.25 C120.14855738 55.91802106 118.98445434 58.58597211 117.8203125 61.25390625 C117.52042419 61.94135925 117.22053589 62.62881226 116.91156006 63.33709717 C114.4269521 69.02963063 111.92989457 74.71664649 109.4296875 80.40234375 C109.03913177 81.29061859 108.64857605 82.17889343 108.2461853 83.09408569 C106.66939049 86.68023085 105.0925806 90.26636937 103.51556396 93.85241699 C98.73816572 104.71910101 93.97682119 115.59076745 89.37182617 126.53198242 C87.10195521 131.89804479 87.10195521 131.89804479 86 133 C83.92737924 133.08767112 81.85179706 133.10695873 79.77734375 133.09765625 C78.51728516 133.09443359 77.25722656 133.09121094 75.95898438 133.08789062 C74.61848891 133.07953403 73.27799412 133.07106907 71.9375 133.0625 C70.59310058 133.0574866 69.2486994 133.05292342 67.90429688 133.04882812 C64.60282059 133.03699488 61.30143197 133.02050971 58 133 C52.60595395 121.60923914 47.48482465 110.11047714 42.4375 98.5625 C41.63882838 96.73886374 40.83999772 94.91529713 40.04101562 93.09179688 C38.05535121 88.55877651 36.0717315 84.02486542 34.08905029 79.49053955 C33.09106254 77.20825011 32.09275097 74.92610278 31.09423828 72.64404297 C30.80169159 71.97543747 30.5091449 71.30683197 30.20773315 70.6179657 C29.63671525 69.31295993 29.06569073 68.00795706 28.49465942 66.70295715 C27.11494488 63.54954196 25.73594425 60.39581832 24.35839844 57.24145508 C21.39378429 50.45537214 18.41770791 43.67450531 15.42721558 36.89978027 C13.75706977 33.11595674 12.08912676 29.33116354 10.42114258 25.54638672 C9.60394492 23.69398577 8.78560018 21.84209039 7.96606445 19.99072266 C6.82219299 17.40651601 5.68220596 14.82062727 4.54296875 12.234375 C4.19888474 11.45987 3.85480072 10.68536499 3.50028992 9.88739014 C3.18461563 9.1688385 2.86894135 8.45028687 2.54370117 7.70996094 C2.26838058 7.08700134 1.99306 6.46404175 1.70939636 5.82220459 C1 4 1 4 0 0 Z " fill="#4ade80" transform="translate(1140,39)"/>
<path d="M0 0 C9.24 0 18.48 0 28 0 C28 43.89 28 87.78 28 133 C18.76 133 9.52 133 0 133 C0 89.11 0 45.22 0 0 Z " fill="#FFFFFF" transform="translate(1299,39)"/>
</svg>
